<svg width="35" height="35" viewBox="0 0 35 35" fill="none" xmlns="http://www.w3.org/2000/svg">
<path d="M8.74998 2.91669H21.875C22.6485 2.91669 23.3904 3.22398 23.9374 3.77096C24.4844 4.31794 24.7916 5.05981 24.7916 5.83335V8.75002H21.875V5.83335H8.74998V29.1667H21.875V26.25H24.7916V29.1667C24.7916 29.9402 24.4844 30.6821 23.9374 31.2291C23.3904 31.7761 22.6485 32.0834 21.875 32.0834H8.74998C7.97643 32.0834 7.23457 31.7761 6.68758 31.2291C6.1406 30.6821 5.83331 29.9402 5.83331 29.1667V5.83335C5.83331 5.05981 6.1406 4.31794 6.68758 3.77096C7.23457 3.22398 7.97643 2.91669 8.74998 2.91669V2.91669Z" fill="black"/>
<path d="M23.4646 22.7354L25.5208 24.7916L32.8125 17.5L25.5208 10.2083L23.4646 12.2646L27.2271 16.0416H13.125V18.9583H27.2271L23.4646 22.7354Z" fill="black"/>
</svg>
